<svg data-v-0dd9719b="" version="1.0" xmlns="http://www.w3.org/2000/svg" xmlns:xlink="http://www.w3.org/1999/xlink" width="100%" height="100%" viewBox="0 0 340.000000 250.000000" preserveAspectRatio="xMidYMid meet" color-interpolation-filters="sRGB" style="margin: auto;"> <rect data-v-0dd9719b="" x="0" y="0" width="100%" height="100%" fill="#fff" fill-opacity="1" class="background"></rect> <rect data-v-0dd9719b="" x="0" y="0" width="100%" height="100%" fill="url(#watermark)" fill-opacity="1" class="watermarklayer"></rect> <g data-v-0dd9719b="" fill="#ff2351" class="icon-text-wrapper icon-svg-group iconsvg" transform="translate(47.68500518798828,95.88875198364258)"><g class="iconsvg-imagesvg" transform="translate(0,4.103328704833984)"><g><rect fill="#ff2351" fill-opacity="0" stroke-width="2" x="0" y="0" width="60" height="50.01583834881046" class="image-rect"></rect> <svg x="0" y="0" width="60" height="50.01583834881046" filtersec="colorsb7808803600" class="image-svg-svg primary" style="overflow: visible;"><svg xmlns="http://www.w3.org/2000/svg" viewBox="0 0 94.10999298095703 78.45000457763672"><g><g><path d="M82.75 49.5H77v-5.14h5.76v-5.13H65.39v5.13h-5.24v13.33a37.85 37.85 0 0 1-8.19 3 22.23 22.23 0 0 0 2.61.46 19.55 19.55 0 0 1-2.47.18 22.71 22.71 0 0 1-2.76-.18c-11.09-1.29-19.16-10.27-19.21-21.9h5.24a.45.45 0 0 1 0-.11 24.3 24.3 0 0 1 .54-5 21.21 21.21 0 0 1 18.63-16.96 22.95 22.95 0 0 1 5.24 0 23.39 23.39 0 0 0-2.55.44 32.31 32.31 0 0 1 15 7.87h5.24l2.09-2.57 1.85-2.27 7.49-9.22C81.54 4.91 70.52.66 59.76.08 58.91 0 58.07 0 57.22 0s-1.8 0-2.7.08S52.83 0 52 0C29.45 0 12.28 14.25 9.79 34.09h12.14v5.14H0v5.13h4.57C7.1 64.12 23.79 78.45 45.43 78.45c.84 0 1.69 0 2.55-.08s1.78.08 2.69.08 1.69 0 2.55-.08c10.22-.59 21.93-4.54 29.53-9.81zM0 23.82h5.14v5.14H0zM5.14 64.91h5.14v5.14H5.14z" fill="#ff2351"></path><path fill="#ff2351" d="M5.14 18.69h5.14v5.14H5.14z"></path><path d="M88 49.5H77v-5.14h16.14v-5.13H65.39v18.46a34.36 34.36 0 0 1-10.82 3.44 22.23 22.23 0 0 1-2.57-.46c-9.71-2.3-16.55-10.75-16.59-21.44h10.3v-5.14h-4.57a21.15 21.15 0 0 1 16.09-16.47 23.39 23.39 0 0 1 2.55-.44 31.11 31.11 0 0 1 12.42 4.36c.72.44 1.42.89 2.1 1.38a31.11 31.11 0 0 1 3.14 2.57h5.25l11.42-14C86.2 4.4 74 0 62.46 0c-.91 0-1.81 0-2.7.08S58.07 0 57.22 0s-1.8 0-2.7.08c-21.19 1.09-37.1 15-39.49 34h6.9v5.14H9.47C9.53 60.73 25.86 77.13 48 78.37c.89 0 1.78.08 2.69.08s1.69 0 2.55-.08 1.78.08 2.69.08c10.76 0 23.84-4.17 32.08-9.89z" fill="#00d8eb"></path><path fill="#00d8eb" d="M55.27 39.23h.67v-5.14H50.8v5.14h4.47z"></path><path d="M82.75 49.5H77v-5.14h5.76v-5.13H65.39v18.46a34.36 34.36 0 0 1-10.82 3.44 19.55 19.55 0 0 1-2.47.18 22.71 22.71 0 0 1-2.76-.18c-11.09-1.29-19.16-10.27-19.21-21.9h5.24a.45.45 0 0 1 0-.11 24.3 24.3 0 0 1 .54-5 21.21 21.21 0 0 1 18.63-16.94 22.95 22.95 0 0 1 5.24 0 31.11 31.11 0 0 1 12.42 4.36c.72.44 1.42.89 2.1 1.38a31.11 31.11 0 0 1 3.14 2.57l2.09-2.57 1.85-2.27 7.49-9.22C81.54 4.91 70.52.66 59.76.08 58.91 0 58.07 0 57.22 0s-1.8 0-2.7.08c-21.19 1.09-37.1 15-39.49 34h6.9v5.14H9.47C9.53 60.73 25.86 77.13 48 78.37c.89 0 1.78.08 2.69.08s1.69 0 2.55-.08c10.22-.59 21.93-4.54 29.53-9.81z" fill="#000b34"></path></g></g></svg></svg> <!----></g></g> <g transform="translate(67,0)"><g data-gra="path-name" fill-rule="" class="tp-name iconsvg-namesvg" transform="translate(0,0)"><g transform="scale(1)"><g><path d="M19.03-14.19L19.03-14.19 27.11-13.54Q26.98-12.57 25.62-12.39L25.62-12.39Q25.22-6.86 23.69-4.44L23.69-4.44Q37.97-4.17 41.7-0.66L41.7-0.66Q43.51 1.01 42.19 2.64L42.19 2.64Q41 4.04 38.72 3.96L38.72 3.96Q37.27 3.91 36.08 3.08L36.08 3.08Q30.85-1.19 23.03-3.52L23.03-3.52Q20.87-0.79 15.84 1.12 10.81 3.03 1.41 4.31L1.41 4.31 1.14 3.74Q4.83 2.86 7.65 1.82 10.46 0.79 12.35-0.2 14.24-1.19 15.51-2.48 16.79-3.78 17.47-4.88 18.15-5.98 18.48-7.6 18.81-9.23 18.9-10.48 18.98-11.73 19.03-13.71L19.03-13.71Q19.03-14.02 19.03-14.19ZM32.12-4.61L32.12-4.61 31.03-4.61 31.03-15.29 13.8-15.29 13.8-4.48Q13.8-4.17 12.96-3.71 12.13-3.25 10.74-2.88 9.36-2.5 8.13-2.5L8.13-2.5 7.25-2.5 7.25-19.16 14.19-16.57 30.59-16.57 33.31-19.38 38.8-15.29Q38.36-14.77 37.4-14.59L37.4-14.59 37.4-6.28Q37.4-6.06 36.54-5.67 35.68-5.27 34.41-4.94 33.13-4.61 32.12-4.61ZM12.74-31.77L12.74-26.94 18.94-26.94 18.94-31.77 12.74-31.77ZM31.42-26.94L31.42-31.77 25.36-31.77 25.36-26.94 31.42-26.94ZM25.36-21.23L35.02-21.23 38.32-25.22Q42.1-22.59 44.43-20.7L44.43-20.7Q44.25-20 43.11-20L43.11-20 1.41-20 1.05-21.23 18.94-21.23 18.94-25.71 12.74-25.71 12.74-24.79Q12.74-24.52 11.95-24.1 11.16-23.69 9.84-23.33 8.53-22.98 7.38-22.98L7.38-22.98 6.5-22.98 6.5-35.51 13.14-33.05 18.94-33.05 18.94-38.5 26.37-37.84Q26.28-37.09 25.36-36.91L25.36-36.91 25.36-33.05 31.03-33.05 33.66-35.77 39.07-31.82Q38.67-31.25 37.66-31.07L37.66-31.07 37.66-25.14Q37.62-24.79 35.79-24.17 33.97-23.55 32.52-23.55L32.52-23.55 31.42-23.55 31.42-25.71 25.36-25.71 25.36-21.23ZM50.63-27.77L50.63-27.77 51.11-27.82Q52.73-24.65 53.24-21.84 53.75-19.03 53.35-17.12 52.95-15.21 51.9-13.89L51.9-13.89Q50.76-12.52 48.96-12.68 47.15-12.83 46.27-14.37L46.27-14.37Q44.82-17.05 47.59-19.07L47.59-19.07Q48.87-20.3 49.83-22.76 50.8-25.22 50.63-27.77ZM78.97-20.79L78.97-37.31 87.01-36.52Q86.88-35.46 85.39-35.24L85.39-35.24 85.39 2.02Q85.39 2.55 83.63 3.36 81.87 4.17 80.2 4.17L80.2 4.17 78.97 4.17 78.97-14.99Q78.13-13.97 76.71-14 75.28-14.02 73.96-15.34L73.96-15.34Q74.09-19.07 72.47-23.73L72.47-23.73 72.47 1.36Q72.47 1.85 70.77 2.64 69.08 3.43 67.46 3.43L67.46 3.43 66.27 3.43 66.27-14.81Q65.43-14.11 64.12-14.26 62.8-14.41 61.66-15.6L61.66-15.6Q61.83-19.47 60.38-23.86L60.38-23.86 60.38-18.94Q60.34-15.03 59.7-11.78 59.06-8.53 57.59-5.41 56.12-2.29 53.42 0.2 50.71 2.68 46.89 4.35L46.89 4.35 46.58 4Q50.89-0.18 52.56-5.84 54.23-11.51 54.23-18.94L54.23-18.94 54.23-37.22 62.05-36.47Q61.92-35.42 60.38-35.2L60.38-35.2 60.38-25.49Q64.38-23.91 66.27-21.53L66.27-21.53 66.27-36.65 74.14-35.86Q74-34.8 72.47-34.58L72.47-34.58 72.47-25.44Q77.08-23.64 78.97-20.79L78.97-20.79ZM116.06-19.42L123.66-19.42 127.44-24.48Q131.7-21.14 134.21-18.9L134.21-18.9Q134.03-18.19 132.85-18.19L132.85-18.19 116.06-18.19 116.06 2.33Q116.02 2.55 115.36 2.99 114.7 3.43 113.27 3.85 111.84 4.26 110.21 4.26L110.21 4.26 108.85 4.26 108.85-18.19 91.76-18.19 91.41-19.42 108.85-19.42 108.85-29.97Q101.12-29.49 94.53-29.66L94.53-29.66 94.44-30.23Q102-31.38 110.02-33.68 118.04-35.99 122.52-38.32L122.52-38.32 129.11-32.08Q128.1-31.29 125.68-32.12L125.68-32.12Q120.76-31.11 116.06-30.59L116.06-30.59 116.06-19.42ZM160.8-14.77L169.85-14.77 172.97-18.9Q176.57-16.13 178.68-14.24L178.68-14.24Q178.46-13.49 177.45-13.49L177.45-13.49 160.8-13.49 160.8-3.52Q160.8-1.71 160.49-0.51 160.18 0.7 159.28 1.8 158.38 2.9 156.62 3.54 154.86 4.17 152.14 4.35L152.14 4.35Q152.01 0.92 150.78-0.48L150.78-0.48Q149.37-2.11 145.9-2.68L145.9-2.68 145.9-3.25Q151.88-2.9 153.11-2.9L153.11-2.9Q154.03-2.9 154.03-3.74L154.03-3.74 154.03-13.49 136.85-13.49 136.49-14.77 154.03-14.77 154.03-22.15 143.61-22.15 143.22-23.38 163.74-23.38 166.95-27.47Q168-26.67 169.32-25.62L169.32-25.62Q170.11-28.52 170.33-29.84L170.33-29.84 143.7-29.84Q144.1-27.47 143.53-25.73 142.95-23.99 141.72-23.16L141.72-23.16Q140.54-22.32 138.96-22.83 137.37-23.33 136.89-24.83L136.89-24.83Q136.49-26.24 137.13-27.36 137.77-28.48 139.09-29.09L139.09-29.09Q140.19-29.79 141.06-31.18 141.94-32.56 141.81-33.97L141.81-33.97 142.34-33.97Q142.87-32.87 143.39-31.11L143.39-31.11 154.03-31.11 154.03-38.5 162.42-37.88Q162.33-36.87 160.8-36.61L160.8-36.61 160.8-31.11 170.07-31.11 173.19-34.23 178.64-29.14Q178.07-28.61 176.84-28.52L176.84-28.52Q173.76-26.37 170.02-25.09L170.02-25.09Q170.46-24.7 172.71-22.85L172.71-22.85Q172.53-22.15 171.43-22.15L171.43-22.15 160.8-22.15 160.8-14.77Z" transform="translate(-1.0499999523162842, 38.5)"></path></g> <!----> <!----> <!----> <!----> <!----> <!----> <!----></g></g> <g data-gra="path-slogan" fill-rule="" class="tp-slogan iconsvg-slogansvg" fill="#ff2351" transform="translate(37.38943862915039,48.849998474121094)"><!----> <!----> <g transform="scale(1, 1)"><g transform="scale(1)"><path d="M7.31-3.61L4.69-3.61L4.69-4.59L8.44-4.59L8.44 0L7.69 0L7.41-1.08Q6.42 0.09 4.59 0.14L4.59 0.14Q2.86 0.14 1.92-0.75L1.92-0.75Q0.52-2.06 0.56-4.36L0.56-4.36Q0.89-8.63 4.64-8.81L4.64-8.81Q7.83-8.63 8.30-6L8.30-6L7.17-6Q6.70-7.78 4.59-7.83L4.59-7.83Q1.92-7.64 1.78-4.31L1.78-4.31Q1.78-0.75 4.64-0.75L4.64-0.75Q5.67-0.75 6.42-1.31L6.42-1.31Q7.36-2.06 7.31-3.61L7.31-3.61ZM15.89-3.19L15.89-8.58L17.06-8.58L17.06-3.05Q16.92 0.05 13.55 0.14L13.55 0.14Q10.41 0.05 10.27-2.86L10.27-2.86L10.27-8.58L11.44-8.58L11.44-3.19Q11.48-0.84 13.59-0.80L13.59-0.80Q15.89-0.84 15.89-3.19L15.89-3.19ZM19.03-8.58L20.20-8.58L20.20 0L19.03 0L19.03-8.58ZM23.02-1.03L28.31-1.03L28.31 0L21.56 0L21.56-0.94L26.81-7.59L21.94-7.59L21.94-8.58L28.31-8.58L28.31-7.59L23.02-1.03ZM30.61-5.06L35.11-5.06L35.11-8.58L36.28-8.58L36.28 0L35.11 0L35.11-3.98L30.61-3.98L30.61 0L29.44 0L29.44-8.58L30.61-8.58L30.61-5.06ZM44.86-4.27L44.86-4.27Q44.67-7.64 41.86-7.83L41.86-7.83Q39-7.69 38.86-4.27L38.86-4.27Q39-0.94 41.86-0.80L41.86-0.80Q44.67-0.98 44.86-4.27ZM46.03-4.27L46.03-4.27Q45.75 0 41.86 0.14L41.86 0.14Q37.92 0 37.64-4.27L37.64-4.27Q37.88-8.72 41.86-8.81L41.86-8.81Q45.75-8.67 46.03-4.27ZM53.06-3.19L53.06-8.58L54.23-8.58L54.23-3.05Q54.09 0.05 50.72 0.14L50.72 0.14Q47.58 0.05 47.44-2.86L47.44-2.86L47.44-8.58L48.61-8.58L48.61-3.19Q48.66-0.84 50.77-0.80L50.77-0.80Q53.06-0.84 53.06-3.19L53.06-3.19ZM64.36-1.08L63.47-1.78L64.08-2.48L65.16-1.64Q66.14-2.63 66.14-4.27L66.14-4.27Q65.95-7.64 63.14-7.83L63.14-7.83Q60.28-7.69 60.14-4.27L60.14-4.27Q60.28-0.94 63.14-0.80L63.14-0.80Q63.84-0.80 64.36-1.08L64.36-1.08ZM66.09-0.94L67.22-0.05L66.66 0.56L65.34-0.33Q64.50 0.14 63.14 0.14L63.14 0.14Q59.20 0 58.92-4.27L58.92-4.27Q59.16-8.72 63.14-8.81L63.14-8.81Q67.03-8.67 67.31-4.27L67.31-4.27Q67.27-2.20 66.09-0.94L66.09-0.94ZM68.86-8.58L70.03-8.58L70.03 0L68.86 0L68.86-8.58ZM77.67 0L76.83-2.48L73.36-2.48L72.47 0L71.30 0L74.53-8.58L75.84-8.58L78.94 0L77.67 0ZM75.09-7.31L73.73-3.52L76.41-3.52L75.14-7.31L75.09-7.31ZM81.38-8.58L85.69-1.64L85.69-8.58L86.81-8.58L86.81 0L85.50 0L81.14-6.94L81.09-6.94L81.09 0L79.97 0L79.97-8.58L81.38-8.58ZM95.53-8.58L92.30-3.47L92.30 0L91.13 0L91.13-3.47L87.89-8.58L89.25-8.58L91.69-4.45L94.17-8.58L95.53-8.58ZM102.23-3.19L102.23-8.58L103.41-8.58L103.41-3.05Q103.27 0.05 99.89 0.14L99.89 0.14Q96.75 0.05 96.61-2.86L96.61-2.86L96.61-8.58L97.78-8.58L97.78-3.19Q97.83-0.84 99.94-0.80L99.94-0.80Q102.23-0.84 102.23-3.19L102.23-3.19Z" transform="translate(-0.5609879032258065, 8.8125)"></path></g></g></g></g></g><defs v-gra="od"></defs></svg>